HIERARCHY
ROOT Hips
{
  OFFSET 5.80788e-005 67.184 3.4734
  CHANNELS 6 Xposition Yposition Zposition Zrotation Xrotation Yrotation
  JOINT Chest
  {
    OFFSET 0 8.7983 -4.7612
    CHANNELS 6 Xposition Yposition Zposition Zrotation Xrotation Yrotation
    JOINT Chest2
    {
      OFFSET 0 8.0291 0.4195
      CHANNELS 6 Xposition Yposition Zposition Zrotation Xrotation Yrotation
      JOINT Chest3
      {
        OFFSET 0 9.9351 -2.2114
        CHANNELS 6 Xposition Yposition Zposition Zrotation Xrotation Yrotation
        JOINT Neck
        {
          OFFSET 0 22.3885 -0.4656
          CHANNELS 6 Xposition Yposition Zposition Zrotation Xrotation Yrotation
          JOINT Head
          {
            OFFSET -0.0001 12.643 3.4389
            CHANNELS 6 Xposition Yposition Zposition Zrotation Xrotation Yrotation
            End Site
            {
              OFFSET 0.0001 17.6655 0.5274
            }
          }
        }
        JOINT LeftCollar
        {
          OFFSET 2.2603 21.606 7.4023
          CHANNELS 6 Xposition Yposition Zposition Zrotation Xrotation Yrotation
          JOINT LeftShoulder
          {
            OFFSET 13.5163 -1.1332 -5.0146
            CHANNELS 6 Xposition Yposition Zposition Zrotation Xrotation Yrotation
            JOINT LeftElbow
            {
              OFFSET -0.0995 -28.05 -0.2431
              CHANNELS 6 Xposition Yposition Zposition Zrotation Xrotation Yrotation
              JOINT LeftWrist
              {
                OFFSET 0.0679 -23.3996 -0.1402
                CHANNELS 6 Xposition Yposition Zposition Zrotation Xrotation Yrotation
                JOINT LeftFinger1
                {
                  OFFSET 0.7932 -9.069 2.5189
                  CHANNELS 6 Xposition Yposition Zposition Zrotation Xrotation Yrotation
                  JOINT LeftFinger11
                  {
                    OFFSET -0.8272 -3.3923 0.5977
                    CHANNELS 6 Xposition Yposition Zposition Zrotation Xrotation Yrotation
                    JOINT LeftFinger12
                    {
                      OFFSET -0.5649 -2.3158 0.4082
                      CHANNELS 6 Xposition Yposition Zposition Zrotation Xrotation Yrotation
                      End Site
                      {
                        OFFSET -0.4919 -1.6479 0.2673
                      }
                    }
                  }
                }
                JOINT LeftFinger2
                {
                  OFFSET 0.9159 -9.2044 0.2193
                  CHANNELS 6 Xposition Yposition Zposition Zrotation Xrotation Yrotation
                  JOINT LeftFinger21
                  {
                    OFFSET 0.0117 -4.1944 -0.0248
                    CHANNELS 6 Xposition Yposition Zposition Zrotation Xrotation Yrotation
                    JOINT LeftFinger22
                    {
                      OFFSET 0.0071 -2.3249 -0.0142
                      CHANNELS 6 Xposition Yposition Zposition Zrotation Xrotation Yrotation
                      End Site
                      {
                        OFFSET -0.1475 -2.0882 0.0028
                      }
                    }
                  }
                }
                JOINT LeftFinger3
                {
                  OFFSET 0.6113 -8.7231 -2.0637
                  CHANNELS 6 Xposition Yposition Zposition Zrotation Xrotation Yrotation
                  JOINT LeftFinger31
                  {
                    OFFSET -0.1927 -3.8059 -0.2383
                    CHANNELS 6 Xposition Yposition Zposition Zrotation Xrotation Yrotation
                    JOINT LeftFinger32
                    {
                      OFFSET -0.1091 -2.1688 -0.1362
                      CHANNELS 6 Xposition Yposition Zposition Zrotation Xrotation Yrotation
                      End Site
                      {
                        OFFSET -0.2358 -1.9176 -0.0906
                      }
                    }
                  }
                }
                JOINT LeftFinger4
                {
                  OFFSET -0.6151 -8.0947 -3.5641
                  CHANNELS 6 Xposition Yposition Zposition Zrotation Xrotation Yrotation
                  JOINT LeftFinger41
                  {
                    OFFSET -0.4882 -2.341 -0.6462
                    CHANNELS 6 Xposition Yposition Zposition Zrotation Xrotation Yrotation
                    JOINT LeftFinger42
                    {
                      OFFSET -0.3575 -1.7167 -0.4742
                      CHANNELS 6 Xposition Yposition Zposition Zrotation Xrotation Yrotation
                      End Site
                      {
                        OFFSET -0.4187 -1.5237 -0.3496
                      }
                    }
                  }
                }
                JOINT LeftFinger0
                {
                  OFFSET -1.42 -1.8761 1.4223
                  CHANNELS 6 Xposition Yposition Zposition Zrotation Xrotation Yrotation
                  JOINT LeftFinger01
                  {
                    OFFSET -1.1471 -3.4929 2.6334
                    CHANNELS 6 Xposition Yposition Zposition Zrotation Xrotation Yrotation
                    JOINT LeftFinger02
                    {
                      OFFSET -0.823 -2.3 1.6571
                      CHANNELS 6 Xposition Yposition Zposition Zrotation Xrotation Yrotation
                      End Site
                      {
                        OFFSET -0.5822 -1.6914 1.1582
                      }
                    }
                  }
                }
              }
            }
          }
        }
        JOINT RightCollar
        {
          OFFSET -2.2603 21.606 7.4023
          CHANNELS 6 Xposition Yposition Zposition Zrotation Xrotation Yrotation
          JOINT RightShoulder
          {
            OFFSET -13.5187 -1.1334 -5.0155
            CHANNELS 6 Xposition Yposition Zposition Zrotation Xrotation Yrotation
            JOINT RightElbow
            {
              OFFSET 0.0994 -28.0499 -0.2431
              CHANNELS 6 Xposition Yposition Zposition Zrotation Xrotation Yrotation
              JOINT RightWrist
              {
                OFFSET -0.0679 -23.3996 -0.1402
                CHANNELS 6 Xposition Yposition Zposition Zrotation Xrotation Yrotation
                JOINT RightFinger1
                {
                  OFFSET -0.7932 -9.0691 2.5189
                  CHANNELS 6 Xposition Yposition Zposition Zrotation Xrotation Yrotation
                  JOINT RightFinger11
                  {
                    OFFSET 0.8272 -3.3923 0.5977
                    CHANNELS 6 Xposition Yposition Zposition Zrotation Xrotation Yrotation
                    JOINT RightFinger12
                    {
                      OFFSET 0.565 -2.3158 0.4082
                      CHANNELS 6 Xposition Yposition Zposition Zrotation Xrotation Yrotation
                      End Site
                      {
                        OFFSET 0.4919 -1.6479 0.2673
                      }
                    }
                  }
                }
                JOINT RightFinger2
                {
                  OFFSET -0.916 -9.2044 0.2193
                  CHANNELS 6 Xposition Yposition Zposition Zrotation Xrotation Yrotation
                  JOINT RightFinger21
                  {
                    OFFSET -0.0117 -4.1944 -0.0248
                    CHANNELS 6 Xposition Yposition Zposition Zrotation Xrotation Yrotation
                    JOINT RightFinger22
                    {
                      OFFSET -0.0071 -2.3249 -0.0142
                      CHANNELS 6 Xposition Yposition Zposition Zrotation Xrotation Yrotation
                      End Site
                      {
                        OFFSET 0.1475 -2.0882 0.0028
                      }
                    }
                  }
                }
                JOINT RightFinger3
                {
                  OFFSET -0.6113 -8.7231 -2.0637
                  CHANNELS 6 Xposition Yposition Zposition Zrotation Xrotation Yrotation
                  JOINT RightFinger31
                  {
                    OFFSET 0.1927 -3.8059 -0.2383
                    CHANNELS 6 Xposition Yposition Zposition Zrotation Xrotation Yrotation
                    JOINT RightFinger32
                    {
                      OFFSET 0.1091 -2.1688 -0.1362
                      CHANNELS 6 Xposition Yposition Zposition Zrotation Xrotation Yrotation
                      End Site
                      {
                        OFFSET 0.2358 -1.9176 -0.0906
                      }
                    }
                  }
                }
                JOINT RightFinger4
                {
                  OFFSET 0.6151 -8.0947 -3.564
                  CHANNELS 6 Xposition Yposition Zposition Zrotation Xrotation Yrotation
                  JOINT RightFinger41
                  {
                    OFFSET 0.4882 -2.341 -0.6462
                    CHANNELS 6 Xposition Yposition Zposition Zrotation Xrotation Yrotation
                    JOINT RightFinger42
                    {
                      OFFSET 0.3574 -1.7166 -0.4742
                      CHANNELS 6 Xposition Yposition Zposition Zrotation Xrotation Yrotation
                      End Site
                      {
                        OFFSET 0.4187 -1.5237 -0.3496
                      }
                    }
                  }
                }
                JOINT RightFinger0
                {
                  OFFSET 1.4199 -1.8761 1.4221
                  CHANNELS 6 Xposition Yposition Zposition Zrotation Xrotation Yrotation
                  JOINT RightFinger01
                  {
                    OFFSET 1.1472 -3.4929 2.6336
                    CHANNELS 6 Xposition Yposition Zposition Zrotation Xrotation Yrotation
                    JOINT RightFinger02
                    {
                      OFFSET 0.8229 -2.3 1.6571
                      CHANNELS 6 Xposition Yposition Zposition Zrotation Xrotation Yrotation
                      End Site
                      {
                        OFFSET 0.5822 -1.6914 1.1582
                      }
                    }
                  }
                }
              }
            }
          }
        }
      }
    }
  }
  JOINT RightHip
  {
    OFFSET -9.412 3.9771 -0.7758
    CHANNELS 6 Xposition Yposition Zposition Zrotation Xrotation Yrotation
    JOINT RightKnee
    {
      OFFSET -0.7531 -40.938 0
      CHANNELS 6 Xposition Yposition Zposition Zrotation Xrotation Yrotation
      JOINT RightAnkle
      {
        OFFSET 0 -40.1986 0
        CHANNELS 6 Xposition Yposition Zposition Zrotation Xrotation Yrotation
        JOINT RightToe
        {
          OFFSET 0 -4.4182 9.239
          CHANNELS 6 Xposition Yposition Zposition Zrotation Xrotation Yrotation
          End Site
          {
            OFFSET 0 0 6.1981
          }
        }
      }
    }
  }
  JOINT LeftHip
  {
    OFFSET 9.4119 3.9773 -0.7758
    CHANNELS 6 Xposition Yposition Zposition Zrotation Xrotation Yrotation
    JOINT LeftKnee
    {
      OFFSET 0.7532 -40.9383 0
      CHANNELS 6 Xposition Yposition Zposition Zrotation Xrotation Yrotation
      JOINT LeftAnkle
      {
        OFFSET 0 -40.1986 0
        CHANNELS 6 Xposition Yposition Zposition Zrotation Xrotation Yrotation
        JOINT LeftToe
        {
          OFFSET 0 -4.4182 9.239
          CHANNELS 6 Xposition Yposition Zposition Zrotation Xrotation Yrotation
          End Site
          {
            OFFSET 0 0 6.1981
          }
        }
      }
    }
  }
}
MOTION
Frames:	4
Frame Time:	0.0333333
5.80788e-005 67.184 3.4734 0 0 -0 0 8.7983 -4.7612 0 0 -0 0 8.0291 0.4195 0 0 -0 0 9.9351 -2.2114 0 0 -0 0 22.3885 -0.4656 0 0 -0 -0.0001 12.643 3.4389 0 0 -0 2.2603 21.606 7.4023 0 0 -12.5014 13.5163 -1.1332 -5.0146 88.1196 14.2451 10.6914 -0.0995 -28.05 -0.2431 -0.00160068 -0.00239207 0.000740045 0.0679 -23.3996 -0.1402 -8.4365e-005 7.00714e-005 -9.52055e-007 0.7932 -9.069 2.5189 9.93923e-017 -1.98785e-016 -1.59028e-015 -0.8272 -3.3923 0.5977 9.93923e-017 -5.96354e-016 -1.59028e-015 -0.5649 -2.3158 0.4082 -9.93923e-017 -5.96354e-016 -1.59028e-015 0.9159 -9.2044 0.2193 9.93923e-017 -1.98785e-016 -1.59028e-015 0.0117 -4.1944 -0.0248 -0.0128176 0.00232552 8.52707e-005 0.0071 -2.3249 -0.0142 9.93923e-017 5.96354e-016 -0 0.6113 -8.7231 -2.0637 9.93923e-017 -1.98785e-016 -1.59028e-015 -0.1927 -3.8059 -0.2383 -0.0160551 0.00299681 0.000857156 -0.1091 -2.1688 -0.1362 -2.48481e-016 0 3.18055e-015 -0.6151 -8.0947 -3.5641 9.93923e-017 -1.98785e-016 -1.59028e-015 -0.4882 -2.341 -0.6462 -0.0125865 0.0031206 0.00282719 -0.3575 -1.7167 -0.4742 0 1.98785e-016 -0 -1.42 -1.8761 1.4223 9.93923e-017 -1.98785e-016 -1.59028e-015 -1.1471 -3.4929 2.6334 9.93923e-017 -5.96354e-016 -1.59028e-015 -0.823 -2.3 1.6571 -9.93923e-017 -5.96354e-016 -1.59028e-015 -2.2603 21.606 7.4023 -0.865644 0.16582 7.03859 -13.5187 -1.1334 -5.0155 -88.0329 10.2057 -10.5567 0.0994 -28.0499 -0.2431 0.0015593 -0.00248883 -0.000788628 -0.0679 -23.3996 -0.1402 7.87605e-005 4.10553e-005 1.24965e-005 -0.7932 -9.0691 2.5189 -3.97569e-016 -7.95139e-016 3.18055e-015 0.8272 -3.3923 0.5977 -1.98785e-016 -3.97569e-016 3.18055e-015 0.565 -2.3158 0.4082 -1.98785e-016 0 3.18055e-015 -0.916 -9.2044 0.2193 -3.97569e-016 -7.95139e-016 3.18055e-015 -0.0117 -4.1944 -0.0248 0.0129473 0.00231697 -8.70038e-005 -0.0071 -2.3249 -0.0142 9.93923e-017 -7.95139e-016 1.59028e-015 -0.6113 -8.7231 -2.0637 -3.97569e-016 -7.95139e-016 3.18055e-015 0.1927 -3.8059 -0.2383 0.0163314 0.00303369 -0.000872333 0.1091 -2.1688 -0.1362 3.97569e-016 7.95139e-016 -3.18055e-015 0.6151 -8.0947 -3.564 -3.97569e-016 -7.95139e-016 3.18055e-015 0.4882 -2.341 -0.6462 0.0145763 0.00367772 -0.00326275 0.3574 -1.7166 -0.4742 9.93923e-017 -3.97569e-016 -0 1.4199 -1.8761 1.4221 -3.97569e-016 -7.95139e-016 3.18055e-015 1.1472 -3.4929 2.6336 -1.98785e-016 -3.97569e-016 3.18055e-015 0.8229 -2.3 1.6571 -1.98785e-016 0 3.18055e-015 -9.412 3.9771 -0.7758 3.42485 1.36937 -0.0640303 -0.7531 -40.938 0 0.000136572 0.69354 0.00145564 1.77636e-015 -40.1986 -1.11022e-016 -3.42573 -2.06297 -0.0607933 8.88178e-016 -4.4182 9.239 -3.19502e-024 0 -1.48106e-024 9.4119 3.9773 -0.7758 -3.42498 1.36123 0.0639712 0.7532 -40.9383 2.22045e-016 -6.769e-005 0.712612 -0.0012277 8.88179e-016 -40.1986 0 3.42582 -2.07388 0.0612819 -8.88178e-016 -4.4182 9.239 2.55305e-023 0 -2.31416e-026 
17.6532 25.9476 3.01145 -59.2236 -38.8909 110.36 -1.77636e-015 8.7983 -4.7612 -0.223565 2.72691 -0.118295 1.77636e-015 8.0291 0.4195 -0.442224 5.45427 -0.226318 0 9.9351 -2.2114 -0.442223 5.45427 -0.226327 1.77636e-015 22.3885 -0.4656 -4.40707e-006 -25.2199 9.25666e-006 -0.0001 12.643 3.4389 -0.0451361 -29.2413 -0.0299448 2.2603 21.606 7.4023 -8.19862 4.53134 -13.955 13.5163 -1.1332 -5.0146 56.6011 -31.6377 40.7177 -0.0995 -28.05 -0.2431 -148.021 -78.8277 -171.163 0.0679 -23.3996 -0.1402 -2.74662 -4.85017 -8.30946 0.7932 -9.069 2.5189 6.10966e-006 -7.30822e-007 -7.6695e-006 -0.8272 -3.3923 0.5977 -3.47716e-006 -1.75968e-006 3.4552e-006 -0.5649 -2.3158 0.4082 -2.6325e-006 2.4905e-006 4.2143e-006 0.9159 -9.2044 0.2193 6.10966e-006 -7.30822e-007 -7.6695e-006 0.0117 -4.1944 -0.0248 -0.012813 0.00232573 9.4481e-005 0.0071 -2.3249 -0.0142 5.73436e-006 -9.94072e-006 -7.77112e-006 0.6113 -8.7231 -2.0637 6.10966e-006 -7.30822e-007 -7.6695e-006 -0.1927 -3.8059 -0.2383 -0.0160487 0.00299718 0.000862042 -0.1091 -2.1688 -0.1362 1.74306e-007 -2.25161e-007 1.23002e-007 -0.6151 -8.0947 -3.5641 6.10966e-006 -7.30822e-007 -7.6695e-006 -0.4882 -2.341 -0.6462 -0.012618 0.00313458 0.00283809 -0.3575 -1.7167 -0.4742 -6.36111e-015 -3.8123e-006 -6.36111e-015 -1.42 -1.8761 1.4223 6.10966e-006 -7.30822e-007 -7.6695e-006 -1.1471 -3.4929 2.6334 -3.47716e-006 -1.75968e-006 3.4552e-006 -0.823 -2.3 1.6571 -2.6325e-006 2.4905e-006 4.2143e-006 -2.2603 21.606 7.4023 7.16361 4.68125 8.81861 -13.5187 -1.1334 -5.0155 -53.4053 -34.8322 -36.7154 0.0994 -28.0499 -0.2431 157.253 -79.0096 179.574 -0.0679 -23.3996 -0.1402 2.52736 -4.89282 8.57002 -0.7932 -9.0691 2.5189 -4.15815e-006 -5.20139e-006 -2.15751e-007 0.8272 -3.3923 0.5977 5.49173e-006 4.0175e-006 1.28194e-006 0.565 -2.3158 0.4082 -2.66715e-006 -3.11534e-006 -2.13238e-006 -0.916 -9.2044 0.2193 -4.15815e-006 -5.20139e-006 -2.15751e-007 -0.0117 -4.1944 -0.0248 0.0130083 0.00231408 -8.93781e-005 -0.0071 -2.3249 -0.0142 1.33353e-006 -1.2983e-006 1.06625e-006 -0.6113 -8.7231 -2.0637 -4.15815e-006 -5.20139e-006 -2.15751e-007 0.1927 -3.8059 -0.2383 0.0163787 0.00303717 -0.000872833 0.1091 -2.1688 -0.1362 -1.02612e-005 -3.63942e-006 7.20522e-006 0.6151 -8.0947 -3.564 -4.15815e-006 -5.20139e-006 -2.15751e-007 0.4882 -2.341 -0.6462 0.0145796 0.00367446 -0.00325769 0.3574 -1.7166 -0.4742 -2.667e-006 2.48574e-007 -2.13256e-006 1.4199 -1.8761 1.4221 -4.15815e-006 -5.20139e-006 -2.15751e-007 1.1472 -3.4929 2.6336 5.49173e-006 4.0175e-006 1.28194e-006 0.8229 -2.3 1.6571 -2.66715e-006 -3.11534e-006 -2.13238e-006 -9.412 3.9771 -0.7758 -20.8351 -21.0296 -30.3047 -0.7531 -40.938 4.44089e-016 -100.641 75.1028 111.94 7.10543e-015 -40.1986 -1.77636e-015 -6.50388 9.22914 -2.90034 3.55271e-015 -4.4182 9.239 -6.75573e-006 -5.85275e-007 1.57456e-006 9.4119 3.9773 -0.7758 20.8469 -21.0273 30.2894 0.7532 -40.9383 2.66454e-015 100.617 75.1458 -111.905 -3.55271e-015 -40.1986 3.55271e-015 6.51548 9.24841 2.88613 3.55271e-015 -4.4182 9.239 2.09447e-006 6.47398e-006 7.71608e-006 
33.9768 10.5656 6.30712 117.657 -75.3715 -63.3827 -3.55271e-015 8.7983 -4.7612 -0.353211 3.9538 -0.157706 3.55271e-015 8.0291 0.4195 -0.697978 7.90849 -0.291951 7.10543e-015 9.9351 -2.2114 -0.697979 7.90849 -0.291955 0 22.3885 -0.4656 1.07309e-005 -36.4265 7.87428e-006 -0.0001 12.643 3.4389 -0.0782861 -41.9142 -0.0504563 2.2603 21.606 7.4023 -11.8596 6.65107 -14.6914 13.5163 -1.1332 -5.0146 47.8711 -53.1643 57.248 -0.0995 -28.05 -0.2431 147.777 -39.6966 114.648 0.0679 -23.3996 -0.1402 -3.96582 -7.16873 -12.0891 0.7932 -9.069 2.5189 2.38542e-015 -9.54166e-015 1.19271e-015 -0.8272 -3.3923 0.5977 3.18055e-015 0 -7.95139e-016 -0.5649 -2.3158 0.4082 3.18055e-015 0 -3.97569e-016 0.9159 -9.2044 0.2193 2.38542e-015 -9.54166e-015 1.19271e-015 0.0117 -4.1944 -0.0248 -0.0128272 0.0023235 8.45501e-005 0.0071 -2.3249 -0.0142 1.59028e-015 3.18055e-015 -1.19271e-015 0.6113 -8.7231 -2.0637 2.38542e-015 -9.54166e-015 1.19271e-015 -0.1927 -3.8059 -0.2383 -0.0160729 0.00300915 0.00086409 -0.1091 -2.1688 -0.1362 4.73474e-006 -4.6005e-006 -7.44747e-006 -0.6151 -8.0947 -3.5641 2.38542e-015 -9.54166e-015 1.19271e-015 -0.4882 -2.341 -0.6462 -0.0126187 0.00311544 0.00283673 -0.3575 -1.7167 -0.4742 -7.95139e-016 3.18055e-015 1.59028e-015 -1.42 -1.8761 1.4223 2.38542e-015 -9.54166e-015 1.19271e-015 -1.1471 -3.4929 2.6334 3.18055e-015 0 -7.95139e-016 -0.823 -2.3 1.6571 3.18055e-015 0 -3.97569e-016 -2.2603 21.606 7.4023 10.7281 6.79417 9.7176 -13.5187 -1.1334 -5.0155 -40.53 -55.8775 -49.586 0.0994 -28.0499 -0.2431 -145.681 -38.0357 -114.372 -0.0679 -23.3996 -0.1402 3.65382 -7.23681 12.4589 -0.7932 -9.0691 2.5189 7.45443e-017 -3.18055e-015 2.21129e-015 0.8272 -3.3923 0.5977 -3.69615e-016 1.59028e-015 2.2041e-015 0.565 -2.3158 0.4082 -7.14382e-017 -3.18055e-015 6.65269e-016 -0.916 -9.2044 0.2193 7.45443e-017 -3.18055e-015 2.21129e-015 -0.0117 -4.1944 -0.0248 0.0129627 0.00232517 -8.79347e-005 -0.0071 -2.3249 -0.0142 2.64399e-016 -1.59028e-015 -1.49661e-015 -0.6113 -8.7231 -2.0637 7.45443e-017 -3.18055e-015 2.21129e-015 0.1927 -3.8059 -0.2383 0.0163385 0.00303638 -0.000884062 0.1091 -2.1688 -0.1362 -3.12931e-016 3.18055e-015 7.52043e-016 0.6151 -8.0947 -3.564 7.45443e-017 -3.18055e-015 2.21129e-015 0.4882 -2.341 -0.6462 0.0145857 0.00368121 -0.00327455 0.3574 -1.7166 -0.4742 -7.99798e-017 0 7.19527e-016 1.4199 -1.8761 1.4221 7.45443e-017 -3.18055e-015 2.21129e-015 1.1472 -3.4929 2.6336 -3.69615e-016 1.59028e-015 2.2041e-015 0.8229 -2.3 1.6571 -7.14382e-017 -3.18055e-015 6.65269e-016 -9.412 3.9771 -0.7758 -39.0896 -26.6631 -46.3696 -0.7531 -40.938 -5.32907e-015 -145.996 39.3839 153.433 7.10543e-015 -40.1986 7.10543e-015 -7.43831 14.9871 -4.85252 0 -4.4182 9.239 7.38226e-007 -6.11517e-007 4.25697e-007 9.4119 3.9773 -0.7758 39.1045 -26.6764 46.3501 0.7532 -40.9383 0 146.044 39.4203 -153.487 -1.77636e-015 -40.1986 0 7.45435 15.0157 4.83508 7.10543e-015 -4.4182 9.239 1.19271e-015 -3.18055e-015 -1.19271e-015 
29.8587 13.889 6.34604 -90.4034 -89.7353 89.3393 3.55271e-015 8.7983 -4.7612 -0.323172 3.68115 -0.150206 3.55271e-015 8.0291 0.4195 -0.638633 7.36308 -0.280425 0 9.9351 -2.2114 -0.638636 7.36312 -0.280426 -3.55271e-015 22.3885 -0.4656 1.42705e-006 -33.6194 6.88055e-007 -0.0001 12.643 3.4389 -0.0688779 -38.0181 -0.0434787 2.2603 21.606 7.4023 -11.1567 6.36497 -14.6935 13.5163 -1.1332 -5.0146 49.2289 -48.3795 53.0749 -0.0995 -28.05 -0.2431 153.806 -49.2624 122.817 0.0679 -23.3996 -0.1402 -3.65609 -6.92761 -11.3295 0.7932 -9.069 2.5189 -5.06456e-006 4.30625e-006 4.68038e-006 -0.8272 -3.3923 0.5977 2.93469e-006 -4.15863e-007 -3.84919e-006 -0.5649 -2.3158 0.4082 2.12987e-006 -3.89038e-006 -8.31187e-007 0.9159 -9.2044 0.2193 -5.06456e-006 4.30625e-006 4.68038e-006 0.0117 -4.1944 -0.0248 -0.0128093 0.00231416 8.04102e-005 0.0071 -2.3249 -0.0142 -4.37326e-015 0 2.78299e-015 0.6113 -8.7231 -2.0637 -5.06456e-006 4.30625e-006 4.68038e-006 -0.1927 -3.8059 -0.2383 -0.0160659 0.00299683 0.000862988 -0.1091 -2.1688 -0.1362 -3.97569e-016 -3.18055e-015 5.66536e-015 -0.6151 -8.0947 -3.5641 -5.06456e-006 4.30625e-006 4.68038e-006 -0.4882 -2.341 -0.6462 -0.012572 0.00312593 0.00282654 -0.3575 -1.7167 -0.4742 -3.18055e-015 0 7.25564e-015 -1.42 -1.8761 1.4223 -5.06456e-006 4.30625e-006 4.68038e-006 -1.1471 -3.4929 2.6334 2.93469e-006 -4.15863e-007 -3.84919e-006 -0.823 -2.3 1.6571 2.12987e-006 -3.89038e-006 -8.31187e-007 -2.2603 21.606 7.4023 10.0364 6.51283 9.71434 -13.5187 -1.1334 -5.0155 -43.1169 -51.1744 -46.5088 0.0994 -28.0499 -0.2431 -151.332 -47.7714 -121.918 -0.0679 -23.3996 -0.1402 3.36216 -6.98441 11.6823 -0.7932 -9.0691 2.5189 7.18433e-007 1.41053e-005 -9.0068e-006 0.8272 -3.3923 0.5977 -2.11554e-008 -3.42019e-006 -5.93078e-006 0.565 -2.3158 0.4082 -1.63091e-006 -8.60801e-008 5.50462e-006 -0.916 -9.2044 0.2193 7.18433e-007 1.41053e-005 -9.0068e-006 -0.0117 -4.1944 -0.0248 0.0129326 0.00230835 -8.6216e-005 -0.0071 -2.3249 -0.0142 4.50967e-006 7.14522e-006 2.49296e-006 -0.6113 -8.7231 -2.0637 7.18433e-007 1.41053e-005 -9.0068e-006 0.1927 -3.8059 -0.2383 0.0163433 0.00303816 -0.000876305 0.1091 -2.1688 -0.1362 1.18601e-006 2.67839e-006 -4.29029e-006 0.6151 -8.0947 -3.564 7.18433e-007 1.41053e-005 -9.0068e-006 0.4882 -2.341 -0.6462 0.0145535 0.00367738 -0.00326296 0.3574 -1.7166 -0.4742 3.57748e-006 1.40538e-005 -6.93998e-006 1.4199 -1.8761 1.4221 7.18433e-007 1.41053e-005 -9.0068e-006 1.1472 -3.4929 2.6336 -2.11554e-008 -3.42019e-006 -5.93078e-006 0.8229 -2.3 1.6571 -1.63091e-006 -8.60801e-008 5.50462e-006 -9.412 3.9771 -0.7758 -34.6554 -25.7243 -42.8039 -0.7531 -40.938 -4.88498e-015 -142.221 47.8579 151.319 0 -40.1986 0 -7.20745 13.6942 -4.51929 7.10543e-015 -4.4182 9.239 -4.09101e-007 1.61112e-006 -1.1522e-007 9.4119 3.9773 -0.7758 34.6695 -25.7349 42.7856 0.7532 -40.9383 -7.10543e-015 142.271 47.8945 -151.37 8.88178e-016 -40.1986 0 7.22297 13.7214 4.50246 0 -4.4182 9.239 -2.38542e-015 -1.64772e-006 1.59028e-015 
